<svg xmlns="http://www.w3.org/2000/svg" viewBox="0 0 260 176" role="img" aria-labelledby="orf_t">
  <title id="orf_t">Helix - orchestration fabric (dark UI)</title>
  <defs>

    <linearGradient id="orf_bb" x1="0%" y1="0%" x2="100%" y2="100%">
      <stop offset="0%" stop-color="#003949"/><stop offset="50%" stop-color="#049FD9"/><stop offset="100%" stop-color="#7FDBFF"/>
    </linearGradient>
    <linearGradient id="orf_bb2" x1="100%" y1="0%" x2="0%" y2="100%">
      <stop offset="0%" stop-color="#9D174D"/><stop offset="50%" stop-color="#FF1B8D"/><stop offset="100%" stop-color="#FDA4D0"/>
    </linearGradient>
    <linearGradient id="orf_wm" x1="0%" y1="0%" x2="100%" y2="0%">
      <stop offset="0%" stop-color="#ffffff"/><stop offset="40%" stop-color="#e0f4fc"/><stop offset="65%" stop-color="#fda4d0"/><stop offset="100%" stop-color="#ffe4f4"/>
    </linearGradient>
    <linearGradient id="orf_sw" x1="0%" y1="0%" x2="100%" y2="0%">
      <stop offset="0%" stop-color="#FF1B8D" stop-opacity="0.35"/><stop offset="50%" stop-color="#049FD9"/><stop offset="100%" stop-color="#FF1B8D" stop-opacity="0.35"/>
    </linearGradient>
    <radialGradient id="orf_g" cx="130" cy="56" r="74" gradientUnits="userSpaceOnUse">
      <stop offset="0%" stop-color="#049FD9" stop-opacity="0.18"/><stop offset="100%" stop-color="#020617" stop-opacity="0"/>
    </radialGradient>
    <filter id="orf_gl"><feGaussianBlur stdDeviation="0.5" result="b"/><feMerge><feMergeNode in="b"/><feMergeNode in="SourceGraphic"/></feMerge></filter>
    <filter id="orf_sh" x="-8%" y="-8%" width="116%" height="120%">
      <feGaussianBlur in="SourceAlpha" stdDeviation="1.4" result="blur"/>
      <feOffset in="blur" dy="1.5" result="off"/>
      <feFlood flood-color="#020617" flood-opacity="0.45" result="f"/>
      <feComposite in="f" in2="off" operator="in" result="sh"/>
      <feMerge><feMergeNode in="sh"/><feMergeNode in="SourceGraphic"/></feMerge>
    </filter>

  </defs>
  <ellipse cx="130" cy="56" rx="100" ry="52" fill="url(#orf_g)"/>
  <g fill="none" stroke-linecap="round" opacity="0.35" stroke="#049FD9" stroke-width="1.2">
    <path d="M 70 40 H 190 M 70 56 H 190 M 70 72 H 190 M 86 32 V 80 M 114 32 V 80 M 146 32 V 80 M 174 32 V 80"/>
  </g>
  <path fill="none" stroke="url(#orf_bb2)" stroke-width="5.5" stroke-linecap="round" filter="url(#orf_gl)" d="M 84 34 C 108 52 124 58 130 60 C 150 54 172 38 188 34"/>
  <path fill="none" stroke="url(#orf_bb)" stroke-width="5.5" stroke-linecap="round" filter="url(#orf_gl)" d="M 176 78 C 152 62 134 52 130 50 C 116 58 92 78 72 84"/>
  <circle cx="130" cy="56" r="8" fill="#020617" stroke="url(#orf_bb)" stroke-width="2"/><circle cx="130" cy="56" r="3.5" fill="#ffffff"/>

  <g filter="url(#orf_sh)">
    <text x="130" y="156" text-anchor="middle" font-family="Inter, ui-sans-serif, system-ui, sans-serif" font-size="46" font-weight="800" letter-spacing="-0.055em" fill="url(#orf_wm)">Helix</text>
  </g>
  <path d="M 48 166 Q 130 182 212 166" fill="none" stroke="url(#orf_sw)" stroke-width="3.5" stroke-linecap="round"/>
</svg>

