<svg xmlns="http://www.w3.org/2000/svg" viewBox="0 0 88 88" role="img" aria-labelledby="mtitle">
  <title id="mtitle">Helix</title>
  <defs>
    <linearGradient id="ma" x1="0%" y1="0%" x2="100%" y2="100%">
      <stop offset="0%" stop-color="#003949"/>
      <stop offset="50%" stop-color="#049FD9"/>
      <stop offset="85%" stop-color="#5BCFFF"/>
      <stop offset="100%" stop-color="#F472B6"/>
    </linearGradient>
    <linearGradient id="mb" x1="100%" y1="0%" x2="0%" y2="100%">
      <stop offset="0%" stop-color="#9D174D"/>
      <stop offset="40%" stop-color="#049FD9"/>
      <stop offset="100%" stop-color="#FF1B8D"/>
    </linearGradient>
    <radialGradient id="mk-wash" cx="52" cy="30" r="48" gradientUnits="userSpaceOnUse">
      <stop offset="0%" stop-color="#FF4DB8" stop-opacity="0.4"/>
      <stop offset="100%" stop-color="#E6007E" stop-opacity="0"/>
    </radialGradient>
    <radialGradient id="mk-wash2" cx="36" cy="62" r="44" gradientUnits="userSpaceOnUse">
      <stop offset="0%" stop-color="#F472B6" stop-opacity="0.28"/>
      <stop offset="100%" stop-color="#049FD9" stop-opacity="0"/>
    </radialGradient>
  </defs>
  <ellipse cx="48" cy="34" rx="46" ry="32" fill="url(#mk-wash)"/>
  <ellipse cx="40" cy="58" rx="40" ry="34" fill="url(#mk-wash2)"/>
  <g stroke-linecap="round" stroke-width="3" opacity="0.92">
    <line x1="28" y1="26" x2="60" y2="26" stroke="#7A1F4B"/>
    <line x1="22" y1="36" x2="66" y2="36" stroke="#6B2747"/>
    <line x1="20" y1="46" x2="68" y2="46" stroke="#1B5A80"/>
    <line x1="20" y1="56" x2="68" y2="56" stroke="#6B2747"/>
    <line x1="22" y1="66" x2="66" y2="66" stroke="#7A1F4B"/>
    <line x1="28" y1="76" x2="60" y2="76" stroke="#6B2747"/>
  </g>
  <path fill="none" stroke="url(#mb)" stroke-width="6.5" stroke-linejoin="round"
    d="M 58 16 C 32 22 22 34 24 46 C 26 58 40 64 50 62 C 62 60 72 52 70 40 C 68 28 52 26 40 30 C 28 34 20 46 22 56 C 24 66 38 72 50 70"/>
  <path fill="none" stroke="url(#ma)" stroke-width="6.5" stroke-linejoin="round"
    d="M 30 16 C 56 22 68 36 66 48 C 64 60 48 64 38 62 C 26 60 18 50 20 38 C 22 26 36 24 48 28 C 60 32 68 44 66 54 C 64 66 50 72 38 70"/>
  <circle cx="44" cy="26" r="2.5" fill="#FF4DB8"/>
  <circle cx="44" cy="46" r="2.5" fill="#049FD9"/>
  <circle cx="44" cy="66" r="2.5" fill="#FDA4D0"/>
</svg>
