<svg xmlns="http://www.w3.org/2000/svg" viewBox="0 0 260 176" role="img" aria-labelledby="cth_t">
  <title id="cth_t">Helix - catalyst hub (dark UI)</title>
  <defs>

    <linearGradient id="cth_bb" x1="0%" y1="0%" x2="100%" y2="100%">
      <stop offset="0%" stop-color="#003949"/><stop offset="50%" stop-color="#049FD9"/><stop offset="100%" stop-color="#7FDBFF"/>
    </linearGradient>
    <linearGradient id="cth_bb2" x1="100%" y1="0%" x2="0%" y2="100%">
      <stop offset="0%" stop-color="#9D174D"/><stop offset="50%" stop-color="#FF1B8D"/><stop offset="100%" stop-color="#FDA4D0"/>
    </linearGradient>
    <linearGradient id="cth_wm" x1="0%" y1="0%" x2="100%" y2="0%">
      <stop offset="0%" stop-color="#ffffff"/><stop offset="40%" stop-color="#e0f4fc"/><stop offset="65%" stop-color="#fda4d0"/><stop offset="100%" stop-color="#ffe4f4"/>
    </linearGradient>
    <linearGradient id="cth_sw" x1="0%" y1="0%" x2="100%" y2="0%">
      <stop offset="0%" stop-color="#FF1B8D" stop-opacity="0.35"/><stop offset="50%" stop-color="#049FD9"/><stop offset="100%" stop-color="#FF1B8D" stop-opacity="0.35"/>
    </linearGradient>
    <radialGradient id="cth_g" cx="130" cy="56" r="74" gradientUnits="userSpaceOnUse">
      <stop offset="0%" stop-color="#049FD9" stop-opacity="0.18"/><stop offset="100%" stop-color="#020617" stop-opacity="0"/>
    </radialGradient>
    <filter id="cth_gl"><feGaussianBlur stdDeviation="0.5" result="b"/><feMerge><feMergeNode in="b"/><feMergeNode in="SourceGraphic"/></feMerge></filter>
    <filter id="cth_sh" x="-8%" y="-8%" width="116%" height="120%">
      <feGaussianBlur in="SourceAlpha" stdDeviation="1.4" result="blur"/>
      <feOffset in="blur" dy="1.5" result="off"/>
      <feFlood flood-color="#020617" flood-opacity="0.45" result="f"/>
      <feComposite in="f" in2="off" operator="in" result="sh"/>
      <feMerge><feMergeNode in="sh"/><feMergeNode in="SourceGraphic"/></feMerge>
    </filter>

  </defs>
  <ellipse cx="130" cy="56" rx="100" ry="52" fill="url(#cth_g)"/>
  <g stroke-linecap="round" stroke="#049FD9" stroke-width="1.3" opacity="0.45">
    <path d="M 130 56 L 130 32"/><path d="M 130 56 L 154 44"/><path d="M 130 56 L 154 68"/><path d="M 130 56 L 130 80"/><path d="M 130 56 L 106 68"/><path d="M 130 56 L 106 44"/>
  </g>
  <path fill="none" stroke="url(#cth_bb2)" stroke-width="5" stroke-linecap="round" filter="url(#cth_gl)" d="M 108 64 C 118 52 124 48 130 50 C 142 54 150 62 154 70"/>
  <path fill="none" stroke="url(#cth_bb)" stroke-width="5" stroke-linecap="round" filter="url(#cth_gl)" d="M 152 46 C 142 50 134 52 130 52 C 118 52 108 46 106 42"/>
  <circle cx="130" cy="54" r="6" fill="#020617" stroke="#ffffff" stroke-width="1.5"/>

  <g filter="url(#cth_sh)">
    <text x="130" y="156" text-anchor="middle" font-family="Inter, ui-sans-serif, system-ui, sans-serif" font-size="46" font-weight="800" letter-spacing="-0.055em" fill="url(#cth_wm)">Helix</text>
  </g>
  <path d="M 48 166 Q 130 182 212 166" fill="none" stroke="url(#cth_sw)" stroke-width="3.5" stroke-linecap="round"/>
</svg>

