<svg xmlns="http://www.w3.org/2000/svg" viewBox="0 0 260 176" role="img" aria-labelledby="gam_t">
  <title id="gam_t">Helix - agent mesh (dark UI)</title>
  <defs>
    <linearGradient id="gam_bb" x1="0%" y1="0%" x2="100%" y2="100%">
      <stop offset="0%" stop-color="#003949"/><stop offset="50%" stop-color="#049FD9"/><stop offset="100%" stop-color="#7FDBFF"/>
    </linearGradient>
    <linearGradient id="gam_bb2" x1="100%" y1="0%" x2="0%" y2="100%">
      <stop offset="0%" stop-color="#9D174D"/><stop offset="50%" stop-color="#FF1B8D"/><stop offset="100%" stop-color="#FDA4D0"/>
    </linearGradient>
    <linearGradient id="gam_wm" x1="0%" y1="0%" x2="100%" y2="0%">
      <stop offset="0%" stop-color="#ffffff"/><stop offset="40%" stop-color="#e0f4fc"/><stop offset="65%" stop-color="#fda4d0"/><stop offset="100%" stop-color="#ffe4f4"/>
    </linearGradient>
    <linearGradient id="gam_sw" x1="0%" y1="0%" x2="100%" y2="0%">
      <stop offset="0%" stop-color="#FF1B8D" stop-opacity="0.35"/><stop offset="50%" stop-color="#049FD9"/><stop offset="100%" stop-color="#FF1B8D" stop-opacity="0.35"/>
    </linearGradient>
    <radialGradient id="gam_g" cx="130" cy="54" r="76" gradientUnits="userSpaceOnUse">
      <stop offset="0%" stop-color="#049FD9" stop-opacity="0.2"/><stop offset="100%" stop-color="#020617" stop-opacity="0"/>
    </radialGradient>
    <filter id="gam_gl"><feGaussianBlur stdDeviation="0.5" result="b"/><feMerge><feMergeNode in="b"/><feMergeNode in="SourceGraphic"/></feMerge></filter>
    <filter id="gam_sh" x="-8%" y="-8%" width="116%" height="120%">
      <feGaussianBlur in="SourceAlpha" stdDeviation="1.4" result="blur"/>
      <feOffset in="blur" dy="1.5" result="off"/>
      <feFlood flood-color="#020617" flood-opacity="0.45" result="f"/>
      <feComposite in="f" in2="off" operator="in" result="sh"/>
      <feMerge><feMergeNode in="sh"/><feMergeNode in="SourceGraphic"/></feMerge>
    </filter>
  </defs>
  <ellipse cx="130" cy="58" rx="102" ry="56" fill="url(#gam_g)"/>
  <g fill="none" stroke-linecap="round" opacity="0.5">
    <path stroke="#049FD9" stroke-width="1.4" d="M 130 56 L 94 34 M 130 56 L 166 34 M 130 56 L 88 72 M 130 56 L 172 72 M 130 56 L 108 94 M 130 56 L 152 94"/>
  </g>
  <circle cx="94" cy="34" r="3.5" fill="#005C8C"/><circle cx="166" cy="34" r="3.5" fill="#FF1B8D"/>
  <circle cx="88" cy="72" r="3" fill="#049FD9"/><circle cx="172" cy="72" r="3" fill="#F472B6"/>
  <circle cx="108" cy="94" r="2.8" fill="#7FDBFF"/><circle cx="152" cy="94" r="2.8" fill="#BE185D"/>
  <path fill="none" stroke="url(#gam_bb2)" stroke-width="6" stroke-linecap="round" filter="url(#gam_gl)" d="M 86 28 C 108 48 118 58 130 62 C 146 54 168 32 178 26"/>
  <path fill="none" stroke="url(#gam_bb)" stroke-width="6" stroke-linecap="round" filter="url(#gam_gl)" d="M 174 100 C 152 78 138 62 130 54 C 118 70 98 88 86 100"/>
  <circle cx="130" cy="58" r="7" fill="#020617" stroke="url(#gam_bb)" stroke-width="2"/><circle cx="130" cy="58" r="3.5" fill="#ffffff"/>
  <g filter="url(#gam_sh)">
    <text x="130" y="156" text-anchor="middle" font-family="Inter, ui-sans-serif, system-ui, sans-serif" font-size="46" font-weight="800" letter-spacing="-0.055em" fill="url(#gam_wm)">Helix</text>
  </g>
  <path d="M 48 166 Q 130 182 212 166" fill="none" stroke="url(#gam_sw)" stroke-width="3.5" stroke-linecap="round"/>
</svg>
