<svg xmlns="http://www.w3.org/2000/svg" viewBox="0 0 260 176" role="img" aria-labelledby="van_title">
  <title id="van_title">Helix - Anchor base</title>
  <defs>
    <linearGradient id="van_bb" x1="0%" y1="100%" x2="100%" y2="0%">
      <stop offset="0%" stop-color="#003949"/><stop offset="50%" stop-color="#049FD9"/><stop offset="100%" stop-color="#7FDBFF"/>
    </linearGradient>
    <linearGradient id="van_bb2" x1="100%" y1="100%" x2="0%" y2="0%">
      <stop offset="0%" stop-color="#9D174D"/><stop offset="50%" stop-color="#FF1B8D"/><stop offset="100%" stop-color="#FDA4D0"/>
    </linearGradient>
    <linearGradient id="van_wm" x1="0%" y1="0%" x2="100%" y2="0%">
      <stop offset="0%" stop-color="#ffffff"/><stop offset="42%" stop-color="#e0f4fc"/><stop offset="72%" stop-color="#fda4d0"/><stop offset="100%" stop-color="#ffe4f4"/>
    </linearGradient>
    <linearGradient id="van_sw" x1="0%" y1="0%" x2="100%" y2="0%">
      <stop offset="0%" stop-color="#FF1B8D" stop-opacity="0.35"/><stop offset="50%" stop-color="#049FD9"/><stop offset="100%" stop-color="#FF1B8D" stop-opacity="0.35"/>
    </linearGradient>
    <radialGradient id="van_g" cx="130" cy="52" r="76" gradientUnits="userSpaceOnUse">
      <stop offset="0%" stop-color="#049FD9" stop-opacity="0.12"/><stop offset="100%" stop-color="#020617" stop-opacity="0"/>
    </radialGradient>
    <filter id="van_glow" x="-25%" y="-25%" width="150%" height="150%">
      <feGaussianBlur stdDeviation="0.5" result="b"/><feMerge><feMergeNode in="b"/><feMergeNode in="SourceGraphic"/></feMerge>
    </filter>
    <filter id="van_sh" x="-8%" y="-8%" width="116%" height="120%">
      <feGaussianBlur in="SourceAlpha" stdDeviation="1.4" result="blur"/>
      <feOffset in="blur" dy="1.5" result="off"/>
      <feFlood flood-color="#020617" flood-opacity="0.45" result="f"/>
      <feComposite in="f" in2="off" operator="in" result="sh"/>
      <feMerge><feMergeNode in="sh"/><feMergeNode in="SourceGraphic"/></feMerge>
    </filter>
  </defs>
  <ellipse cx="130" cy="56" rx="100" ry="54" fill="url(#van_g)"/>
  <path fill="#003949" stroke="#049FD9" stroke-width="1.5" opacity="0.85"
    d="M 86 96 L 174 96 L 170 108 L 90 108 Z"/>
  <path fill="none" stroke="url(#van_bb2)" stroke-width="6" stroke-linecap="round" filter="url(#van_glow)"
    d="M 104 96 L 104 72 C 110 48 120 36 130 28 C 140 36 152 52 156 72 L 156 96"/>
  <path fill="none" stroke="url(#van_bb)" stroke-width="6" stroke-linecap="round" filter="url(#van_glow)"
    d="M 120 96 L 120 80 C 124 58 128 48 130 44 C 132 48 138 62 140 80 L 140 96"/>
  <circle cx="130" cy="30" r="4.5" fill="#ffffff" stroke="#FF1B8D" stroke-width="1.2"/>
  <g filter="url(#van_sh)">
    <text x="130" y="156" text-anchor="middle" font-family="Inter, ui-sans-serif, system-ui, sans-serif" font-size="46" font-weight="800" letter-spacing="-0.055em" fill="url(#van_wm)">Helix</text>
  </g>
  <path d="M 48 166 Q 130 182 212 166" fill="none" stroke="url(#van_sw)" stroke-width="3.5" stroke-linecap="round"/>
</svg>
