<svg xmlns="http://www.w3.org/2000/svg" viewBox="0 0 260 176" role="img" aria-labelledby="inbl_t">
  <title id="inbl_t">Helix - intent braid (light UI)</title>
  <defs>
    <linearGradient id="inbl_bb" x1="0%" y1="0%" x2="100%" y2="100%">
      <stop offset="0%" stop-color="#003949"/><stop offset="50%" stop-color="#049FD9"/><stop offset="100%" stop-color="#7FDBFF"/>
    </linearGradient>
    <linearGradient id="inbl_bb2" x1="100%" y1="0%" x2="0%" y2="100%">
      <stop offset="0%" stop-color="#9D174D"/><stop offset="50%" stop-color="#FF1B8D"/><stop offset="100%" stop-color="#FDA4D0"/>
    </linearGradient>
    <linearGradient id="inbl_bb3" x1="50%" y1="0%" x2="50%" y2="100%">
      <stop offset="0%" stop-color="#7dd3fc"/><stop offset="100%" stop-color="#f9a8d4"/>
    </linearGradient>
    <linearGradient id="inbl_wm" x1="0%" y1="0%" x2="100%" y2="0%">
      <stop offset="0%" stop-color="#0f172a"/><stop offset="38%" stop-color="#0c4a6e"/><stop offset="64%" stop-color="#831843"/><stop offset="100%" stop-color="#0f172a"/>
    </linearGradient>
    <linearGradient id="inbl_sw" x1="0%" y1="0%" x2="100%" y2="0%">
      <stop offset="0%" stop-color="#E6007E" stop-opacity="0.35"/><stop offset="50%" stop-color="#049FD9"/><stop offset="100%" stop-color="#E6007E" stop-opacity="0.35"/>
    </linearGradient>
    <radialGradient id="inbl_g" cx="130" cy="56" r="72" gradientUnits="userSpaceOnUse">
      <stop offset="0%" stop-color="#049FD9" stop-opacity="0.16"/><stop offset="100%" stop-color="#020617" stop-opacity="0"/>
    </radialGradient>
    <filter id="inbl_gl"><feGaussianBlur stdDeviation="0.4" result="b"/><feMerge><feMergeNode in="b"/><feMergeNode in="SourceGraphic"/></feMerge></filter>
    <filter id="inbl_sh" x="-8%" y="-8%" width="116%" height="120%">
      <feGaussianBlur in="SourceAlpha" stdDeviation="1.2" result="blur"/>
      <feOffset in="blur" dy="1" result="off"/>
      <feFlood flood-color="#ffffff" flood-opacity="0.65" result="f"/>
      <feComposite in="f" in2="off" operator="in" result="sh"/>
      <feMerge><feMergeNode in="sh"/><feMergeNode in="SourceGraphic"/></feMerge>
    </filter>
  </defs>
  <ellipse cx="130" cy="56" rx="98" ry="50" fill="url(#inbl_g)"/>
  <path fill="none" stroke="url(#inbl_bb)" stroke-width="5" stroke-linecap="round" filter="url(#inbl_gl)" d="M 82 30 C 102 48 118 64 130 72 C 146 58 168 40 178 30"/>
  <path fill="none" stroke="url(#inbl_bb2)" stroke-width="5" stroke-linecap="round" filter="url(#inbl_gl)" d="M 178 82 C 158 66 140 54 130 48 C 112 62 92 78 82 88"/>
  <path fill="none" stroke="url(#inbl_bb3)" stroke-width="3.2" stroke-linecap="round" opacity="0.85" d="M 130 26 C 118 42 106 58 130 70 C 154 56 168 42 180 26 M 180 88 C 168 72 154 58 130 64 C 106 72 92 86 80 92"/>
  <g filter="url(#inbl_sh)">
    <text x="130" y="156" text-anchor="middle" font-family="Inter, ui-sans-serif, system-ui, sans-serif" font-size="46" font-weight="800" letter-spacing="-0.055em" fill="url(#inbl_wm)">Helix</text>
  </g>
  <path d="M 48 166 Q 130 182 212 166" fill="none" stroke="url(#inbl_sw)" stroke-width="3.5" stroke-linecap="round"/>
</svg>
