<svg xmlns="http://www.w3.org/2000/svg" viewBox="0 0 260 176" role="img" aria-labelledby="sygl_t">
  <title id="sygl_t">Helix - synapse grid (light UI)</title>
  <defs>

    <linearGradient id="syg_bb" x1="0%" y1="0%" x2="100%" y2="100%">
      <stop offset="0%" stop-color="#003949"/><stop offset="50%" stop-color="#049FD9"/><stop offset="100%" stop-color="#7FDBFF"/>
    </linearGradient>
    <linearGradient id="syg_bb2" x1="100%" y1="0%" x2="0%" y2="100%">
      <stop offset="0%" stop-color="#9D174D"/><stop offset="50%" stop-color="#FF1B8D"/><stop offset="100%" stop-color="#FDA4D0"/>
    </linearGradient>
    <linearGradient id="syg_wm" x1="0%" y1="0%" x2="100%" y2="0%">
      <stop offset="0%" stop-color="#0f172a"/><stop offset="38%" stop-color="#0c4a6e"/><stop offset="64%" stop-color="#831843"/><stop offset="100%" stop-color="#0f172a"/>
    </linearGradient>
    <linearGradient id="syg_sw" x1="0%" y1="0%" x2="100%" y2="0%">
      <stop offset="0%" stop-color="#E6007E" stop-opacity="0.35"/><stop offset="50%" stop-color="#049FD9"/><stop offset="100%" stop-color="#E6007E" stop-opacity="0.35"/>
    </linearGradient>
    <radialGradient id="syg_g" cx="130" cy="56" r="74" gradientUnits="userSpaceOnUse">
      <stop offset="0%" stop-color="#049FD9" stop-opacity="0.18"/><stop offset="100%" stop-color="#020617" stop-opacity="0"/>
    </radialGradient>
    <filter id="syg_gl"><feGaussianBlur stdDeviation="0.5" result="b"/><feMerge><feMergeNode in="b"/><feMergeNode in="SourceGraphic"/></feMerge></filter>
    <filter id="syg_sh" x="-8%" y="-8%" width="116%" height="120%">
      <feGaussianBlur in="SourceAlpha" stdDeviation="1.2" result="blur"/>
      <feOffset in="blur" dy="1" result="off"/>
      <feFlood flood-color="#ffffff" flood-opacity="0.65" result="f"/>
      <feComposite in="f" in2="off" operator="in" result="sh"/>
      <feMerge><feMergeNode in="sh"/><feMergeNode in="SourceGraphic"/></feMerge>
    </filter>

  </defs>
  <ellipse cx="130" cy="56" rx="100" ry="52" fill="url(#syg_g)"/>
  <g stroke="#049FD9" stroke-width="1.3" stroke-linecap="round" opacity="0.45" fill="none">
    <path d="M 98 44 H 122 V 62 H 98 Z M 138 44 H 162 V 62 H 138 Z M 106 66 H 154 M 130 44 V 78"/>
  </g>
  <circle cx="98" cy="44" r="3" fill="#005C8C"/><circle cx="162" cy="44" r="3" fill="#FF1B8D"/><circle cx="98" cy="62" r="2.8" fill="#7FDBFF"/><circle cx="162" cy="62" r="2.8" fill="#FDA4D0"/><circle cx="130" cy="76" r="3.2" fill="#020617" stroke="#ffffff" stroke-width="1"/>
  <path fill="none" stroke="url(#syg_bb2)" stroke-width="4.5" stroke-linecap="round" filter="url(#syg_gl)" d="M 106 50 C 118 56 124 58 130 58"/>
  <path fill="none" stroke="url(#syg_bb)" stroke-width="4.5" stroke-linecap="round" filter="url(#syg_gl)" d="M 154 50 C 142 56 136 58 130 58"/>

  <g filter="url(#syg_sh)">
    <text x="130" y="156" text-anchor="middle" font-family="Inter, ui-sans-serif, system-ui, sans-serif" font-size="46" font-weight="800" letter-spacing="-0.055em" fill="url(#syg_wm)">Helix</text>
  </g>
  <path d="M 48 166 Q 130 182 212 166" fill="none" stroke="url(#syg_sw)" stroke-width="3.5" stroke-linecap="round"/>
</svg>

