<svg xmlns="http://www.w3.org/2000/svg" viewBox="0 0 260 176" role="img" aria-labelledby="vgw_title">
  <title id="vgw_title">Helix - Gateway arch</title>
  <defs>
    <linearGradient id="vgw_bb" x1="0%" y1="0%" x2="100%" y2="100%">
      <stop offset="0%" stop-color="#003949"/><stop offset="50%" stop-color="#049FD9"/><stop offset="100%" stop-color="#7FDBFF"/>
    </linearGradient>
    <linearGradient id="vgw_bb2" x1="100%" y1="0%" x2="0%" y2="100%">
      <stop offset="0%" stop-color="#9D174D"/><stop offset="50%" stop-color="#FF1B8D"/><stop offset="100%" stop-color="#FDA4D0"/>
    </linearGradient>
    <linearGradient id="vgw_wm" x1="0%" y1="0%" x2="100%" y2="0%">
      <stop offset="0%" stop-color="#ffffff"/><stop offset="42%" stop-color="#e0f4fc"/><stop offset="72%" stop-color="#fda4d0"/><stop offset="100%" stop-color="#ffe4f4"/>
    </linearGradient>
    <linearGradient id="vgw_sw" x1="0%" y1="0%" x2="100%" y2="0%">
      <stop offset="0%" stop-color="#FF1B8D" stop-opacity="0.35"/><stop offset="50%" stop-color="#049FD9"/><stop offset="100%" stop-color="#FF1B8D" stop-opacity="0.35"/>
    </linearGradient>
    <radialGradient id="vgw_g" cx="130" cy="56" r="76" gradientUnits="userSpaceOnUse">
      <stop offset="0%" stop-color="#049FD9" stop-opacity="0.16"/><stop offset="100%" stop-color="#020617" stop-opacity="0"/>
    </radialGradient>
    <filter id="vgw_glow" x="-25%" y="-25%" width="150%" height="150%">
      <feGaussianBlur stdDeviation="0.5" result="b"/><feMerge><feMergeNode in="b"/><feMergeNode in="SourceGraphic"/></feMerge>
    </filter>
    <filter id="vgw_sh" x="-8%" y="-8%" width="116%" height="120%">
      <feGaussianBlur in="SourceAlpha" stdDeviation="1.4" result="blur"/>
      <feOffset in="blur" dy="1.5" result="off"/>
      <feFlood flood-color="#020617" flood-opacity="0.45" result="f"/>
      <feComposite in="f" in2="off" operator="in" result="sh"/>
      <feMerge><feMergeNode in="sh"/><feMergeNode in="SourceGraphic"/></feMerge>
    </filter>
  </defs>
  <ellipse cx="130" cy="58" rx="102" ry="56" fill="url(#vgw_g)"/>
  <path fill="none" stroke="#003949" stroke-width="2.2" stroke-linecap="round" opacity="0.5"
    d="M 88 92 L 88 44 Q 130 16 172 44 L 172 92"/>
  <path fill="none" stroke="url(#vgw_bb2)" stroke-width="6" stroke-linecap="round" filter="url(#vgw_glow)"
    d="M 96 88 C 108 52 118 36 130 28 C 142 36 158 56 164 88"/>
  <path fill="none" stroke="url(#vgw_bb)" stroke-width="6" stroke-linecap="round" filter="url(#vgw_glow)"
    d="M 164 72 C 150 48 140 40 130 44 C 120 40 104 52 96 72"/>
  <circle cx="130" cy="36" r="4.5" fill="#ffffff" stroke="#049FD9" stroke-width="1.3"/>
  <circle cx="88" cy="72" r="3" fill="#049FD9"/><circle cx="172" cy="72" r="3" fill="#FF1B8D"/>
  <g filter="url(#vgw_sh)">
    <text x="130" y="156" text-anchor="middle" font-family="Inter, ui-sans-serif, system-ui, sans-serif" font-size="46" font-weight="800" letter-spacing="-0.055em" fill="url(#vgw_wm)">Helix</text>
  </g>
  <path d="M 48 166 Q 130 182 212 166" fill="none" stroke="url(#vgw_sw)" stroke-width="3.5" stroke-linecap="round"/>
</svg>
